<svg width="237" height="23" viewBox="0 0 237 23" fill="none" xmlns="http://www.w3.org/2000/svg">
<g id="HOME">
<g id="layer" clip-path="url(#clip0_0_1)">
<path id="path4191" fill-rule="evenodd" clip-rule="evenodd" d="M121.676 -0.000104103C117.099 -0.031927 113.388 1.14552 110.393 3.42881C107.373 5.71211 105.871 8.48865 105.871 11.9494C105.871 14.7896 107.365 17.3832 109.799 19.4198C112.73 21.8861 116.777 22.9999 121.765 22.9999C123.853 22.9999 126.005 22.6578 127.627 22.2282C130.028 21.6076 133.201 20.1915 134.172 18.0912L134.108 14.9726C134.044 12.8086 134.204 12.7211 136.445 12.6893V11.9494H128.005V12.6893C128.88 12.6893 129.466 12.6575 129.996 12.9995C130.494 13.3735 130.374 15.0362 130.374 15.6886L130.342 17.5741C129.627 18.9345 127.972 19.6744 126.792 20.1358C125.7 20.5654 123.708 21.0269 121.837 21.0587C118.721 21.0905 116.287 20.2233 114.264 18.9584C112.208 17.6298 110.216 14.8851 110.216 11.4561C110.216 8.02722 112.336 5.43366 114.826 3.73909C116.448 2.62528 119.187 1.6706 121.901 1.70242C124.238 1.73424 126.422 2.29114 128.013 3.18219C129.82 4.1687 131.755 6.17354 132.47 7.66126L133.185 7.38281L132.028 2.53777C130.599 1.6706 128.816 1.05801 127.137 0.652265C125.298 0.222656 123.427 0.0317188 121.684 -0.000104103H121.676ZM12.1427 0.509062C8.95446 0.517018 5.78225 0.564752 0.0321236 0.540885L0 1.24894C0.778998 1.24894 1.06008 1.21712 1.52587 1.59104C1.95954 1.96496 2.02379 2.36275 2.02379 3.72317V18.2583C2.02379 19.4914 2.12016 20.7564 1.83908 21.0985C1.43753 21.5599 1.15645 21.6554 0.152587 21.6236V22.3634H11.9901C15.2346 22.3634 20.5591 22.268 22.7435 20.5734C23.5868 20.112 25.1126 18.6879 25.0805 16.2853C25.0805 13.3496 23.8036 12.4586 22.6472 11.8062C21.6192 11.2493 19.997 10.8197 18.1017 10.5094C19.6275 9.98433 19.9729 9.83317 20.9366 9.08533C21.9324 8.37727 22.5909 6.9532 22.5909 5.53708C22.5909 1.82971 18.5434 0.660221 15.4274 0.509062C14.2629 0.509062 13.2028 0.501107 12.1427 0.509062ZM236.936 0.548841L229.21 0.580664V1.23303C230.487 1.29668 230.864 1.3285 231.113 2.21954C231.234 2.56164 231.21 3.33334 231.21 4.40737V18.5129C231.21 21.0746 231.427 21.6633 229.371 21.6633V22.3714H237.008L236.976 21.6633C234.888 21.6633 234.984 20.8598 234.984 18.5129V4.40737C234.984 1.87745 234.92 1.22508 236.952 1.22508V0.548841H236.936ZM34.6453 0.580664V1.38419C35.3922 1.38419 35.7054 1.41601 36.1391 1.66264C36.637 1.97292 37.2634 3.38903 38.0103 4.84493L47.3582 22.3793H50.5064C52.4418 18.5845 55.5498 12.4108 57.951 7.74877C59.5732 4.66195 60.7538 2.19568 61.2196 1.60695C61.5007 1.26486 62.2797 1.39215 62.7776 1.39215V0.580664L56.2324 0.612487V1.38419C56.2966 1.38419 58.1357 1.13756 57.943 2.30706C57.7904 3.22992 50.4983 16.7547 49.5908 18.9186L42.3309 5.37001C41.8009 4.3835 41.3672 3.64362 41.1504 3.05489C40.5561 1.66264 41.4636 1.38419 42.7083 1.38419V0.580664H34.6373H34.6453ZM200.965 0.596575C200.5 0.596575 200.002 0.596575 199.48 0.596575C198.781 0.596575 198.018 0.604531 197.207 0.604531H187.241V1.28077C188.614 1.28077 189.176 1.67855 189.176 3.25379V20.4461C189.176 21.6156 188.301 21.5838 187.241 21.5599V22.3634H195.031V21.5599C193.754 21.5599 193.007 21.4406 192.975 19.921V13.5008C193.818 13.5644 194.565 13.5008 195.874 13.5008C196.34 13.5008 198.829 13.5326 199.584 13.5008C202.419 13.5008 203.728 16.8342 205.254 19.1811C206.531 21.1542 205.969 22.3634 214.136 22.3634C214.136 22.1805 214.072 21.7747 214.072 21.5917C210.578 21.6236 209.928 19.5551 208.434 16.8979C207.037 14.4873 206.659 12.92 203.045 12.5142C208.53 11.4959 209.96 9.02964 209.96 6.21332C209.928 3.37312 207.808 1.61491 204.354 0.843203C203.495 0.652265 202.371 0.596575 200.973 0.58862L200.965 0.596575ZM75.5307 0.604531V1.28077C76.6229 1.28077 76.9361 1.37624 77.2412 1.80585C77.5544 2.20363 77.5544 2.88782 77.5544 4.08914V19.9529C77.5544 21.3769 76.9923 21.6156 75.6511 21.6474V22.3555H95.2465L97.5193 17.8525L96.8045 17.5741C96.0576 18.7754 94.339 19.9529 91.6326 19.9529H81.3209V3.14241C81.3209 2.12407 81.5056 1.8138 81.7546 1.56717C82.1321 1.2569 82.3168 1.32055 83.2805 1.28872V0.612487H75.5226L75.5307 0.604531ZM158.57 0.612487L149.503 17.7173C148.692 19.2607 148.379 19.7858 148.01 20.4938C147.576 21.2337 147.319 21.727 145.825 21.7588V22.3793H152.587L152.619 21.6713C151.407 21.7031 150.877 21.6076 150.844 20.5257C150.844 20.1836 151.158 19.6346 151.623 18.7993L152.9 16.5796H165.991L167.549 19.205C168.577 20.8996 168.296 21.5201 166.457 21.6156V22.3873H174.56V21.552C172.624 21.552 172.721 21.0269 171.01 17.9082L161.437 0.612487H158.57ZM197.046 2.17976C199.439 2.16385 201.873 2.28319 203.407 3.01512C204.716 3.63566 205.808 4.34372 205.808 6.49972C205.808 9.55472 203.905 10.3582 202.475 10.8833C199.953 11.5277 195.809 11.3129 192.975 11.3448V2.24341C194.187 2.24341 195.617 2.18772 197.054 2.17976H197.046ZM12.4238 2.35479C14.3352 2.35479 16.1983 2.42639 17.2343 3.07876C18.5755 3.94594 18.8887 4.55853 18.8887 5.85531C18.8887 6.65884 18.2382 8.05109 17.5475 8.56821C15.9253 9.865 13.0261 9.92864 10.8819 9.92864H5.7421V2.3707H10.5365C11.1549 2.3707 11.7974 2.36275 12.4318 2.36275L12.4238 2.35479ZM159.317 3.88229L164.834 14.1293H154.081L159.317 3.88229ZM12.2552 11.8698C15.4193 11.8619 17.668 11.9812 19.2501 13.1428C20.0933 13.7633 20.9044 14.8373 20.9044 16.1341C20.9044 19.7142 16.383 19.9608 11.9339 19.9608H5.73407V11.8698C7.41252 11.8698 9.16326 11.9017 10.8417 11.8698C11.3316 11.8698 11.8054 11.8698 12.2552 11.8619V11.8698Z" fill="#989898"/>
</g>
</g>
<defs>
<clipPath id="clip0_0_1">
<rect width="237" height="23" fill="white"/>
</clipPath>
</defs>
</svg>
